<?xml version="1.0" standalone="no"?>
<!DOCTYPE svg PUBLIC "-//W3C//DTD SVG 20010904//EN"
 "http://www.w3.org/TR/2001/REC-SVG-20010904/DTD/svg10.dtd">
<svg version="1.0" xmlns="http://www.w3.org/2000/svg"
 width="500.000000pt" height="500.000000pt" viewBox="0 0 500.000000 500.000000"
 preserveAspectRatio="xMidYMid meet">

<g transform="translate(0.000000,500.000000) scale(0.100000,-0.100000)"
fill="#000000" stroke="none">
<path d="M2325 3485 c-210 -40 -382 -131 -535 -284 -378 -379 -386 -984 -19
-1385 117 -129 297 -235 479 -284 130 -35 340 -37 473 -4 479 118 807 556 773
1031 -32 434 -333 801 -744 908 -124 32 -310 40 -427 18z m370 -54 c377 -78
667 -378 741 -768 22 -116 15 -306 -16 -412 -93 -326 -342 -575 -675 -672 -70
-21 -101 -24 -245 -24 -188 0 -257 15 -408 85 -142 67 -292 195 -382 325 -45
65 -104 196 -130 285 -27 94 -39 318 -21 413 63 332 287 603 601 727 149 59
367 76 535 41z"/>
<path d="M2385 3304 c-264 -43 -495 -210 -609 -441 -62 -126 -81 -209 -81
-363 1 -162 14 -221 86 -367 184 -374 638 -542 1027 -381 182 76 327 209 411
381 72 146 85 205 85 367 0 162 -13 221 -84 365 -100 203 -291 358 -515 419
-60 17 -263 29 -320 20z m296 -292 c90 -24 173 -76 221 -139 43 -57 78 -152
78 -214 l0 -39 -149 0 -148 0 -6 42 c-6 45 -28 81 -71 112 -40 30 -138 29
-187 -2 -60 -37 -74 -77 -77 -232 -3 -124 -1 -139 20 -180 33 -64 76 -90 152
-90 102 0 162 45 173 128 l6 42 145 0 145 0 -6 -67 c-21 -224 -228 -361 -514
-339 -296 22 -443 187 -443 496 0 176 37 283 128 375 85 84 202 123 372 124
58 0 120 -7 161 -17z"/>
</g>
</svg>
